<?xml version="1.0" encoding="UTF-8"?>
<svg id="Layer_2" data-name="Layer 2" xmlns="http://www.w3.org/2000/svg" viewBox="0 0 51 51">
  <defs>
    <style>
      .cls-1 {
        fill: "currentColor";
      }
    </style>
  </defs>
  <g id="Layer_1-2" data-name="Layer 1">
    <path class="cls-1" d="M2.3,0l3.54,2.79c11.58-2.36,24.72-.8,33.66,7.46l3.43-3.43c0-.18-2.24-2.06-2.47-2.5-.32-.61.05-1.04.61-1.26,2.55-1.01,5.56-1.5,8.14-2.51.95-.21,1.43.21,1.28,1.18-.97,2.6-1.52,5.5-2.49,8.07-.9,2.39-2.78-1.06-3.81-1.72l-3.43,3.43c2.62,2.89,4.67,6.22,6.05,9.89,2.85,7.57,2.97,15.89,1.42,23.77l2.79,3.54v1c-.78,1.81-2.53,1.57-3.69.25l-36.2-3.75-.3.1-4.63,4.59v-4.78l-3.79,3.73c-.9.72-1.96-.32-1.23-1.23l3.73-3.79H.11l4.59-4.63.1-.3L1.05,3.69C-.29,2.53-.5.78,1.3,0h1ZM6.48,39.54h3.74l24.75-24.75c-3.99-3.65-9.14-5.86-14.42-6.89-5.01-.98-10.01-.9-15.1-.74-.88-.16-1.69-.59-2.35-1.18l3.39,33.57ZM11.46,40.79v3.74l33.47,3.39c-.64-.92-1.16-1.99-1.19-3.14-.02-.67.18-1.43.2-2.09.14-4.94-.15-9.94-1.43-14.72-1.17-4.39-3.23-8.57-6.3-11.93l-24.75,24.75Z"/>
  </g>
</svg>